<svg width="23" height="28" viewBox="0 0 23 28" fill="none" xmlns="http://www.w3.org/2000/svg">
<path d="M11.5752 24.6758C11.7857 23.9239 11.5561 24.53 11.7604 23.6719C11.9493 22.8787 12.3371 21.9741 12.4186 21.1597C12.5363 19.9826 12.3146 18.6138 12.5576 17.4795C13.1136 14.8849 11.7604 11.866 11.7604 9.3403" stroke="#810000" stroke-width="5" stroke-linecap="round"/>
<path d="M20.3186 10.6814C18.8057 9.16854 17.2928 7.65566 15.7799 6.14278C14.8853 5.24814 13.8216 4.56387 12.9262 3.66851C12.1966 2.93892 11.6527 3.9554 11.1049 4.50316C10.2343 5.37378 9.27979 5.93363 8.44134 6.77208C7.90169 7.31172 7.19043 7.49176 6.57283 7.93896C5.68315 8.58317 5.11381 9.64006 4.05511 9.97431" stroke="#810000" stroke-width="5" stroke-linecap="round"/>
</svg>
