<svg width="24" height="29" viewBox="0 0 24 29" fill="none" xmlns="http://www.w3.org/2000/svg">
<path d="M2.77705 26.0986C2.59351 24.4143 2.40345 22.7693 2.35838 21.0791C2.33393 20.1621 2.20454 19.269 2.12374 18.3601C2.06368 17.6843 2.12783 17.0002 2.07314 16.3219C1.88716 14.0159 2.11454 11.6911 2.11454 9.38859C2.11454 8.79054 2.23844 8.25335 2.39979 7.6771C2.51516 7.26507 2.48187 6.66276 2.84146 6.37508C4.04636 5.41116 5.75356 5.22949 7.249 5.22949C8.79485 5.22949 10.2799 5.36696 11.8038 5.51934C12.9393 5.63289 14.0902 5.65901 15.2267 5.79079C16.1082 5.89299 16.9448 5.82673 17.8032 6.11284C18.3265 6.28729 18.8451 6.48275 19.3858 6.59592C19.9201 6.70775 20.0982 6.77885 20.3704 7.25843C20.7065 7.85061 20.7695 8.45676 20.9593 9.08034C21.456 10.7124 21.4102 12.4757 21.4102 14.1642C21.4102 17.5231 21.6292 20.8491 21.5758 24.2123C21.5685 24.6688 21.5592 25.4921 21.1847 25.8225C20.5557 26.3776 20.0011 26.683 19.1742 26.8807C17.9212 27.1803 16.5205 27.0095 15.2451 27.0095C14.7391 27.0095 14.233 27.0095 13.7269 27.0095C13.2653 27.0095 12.8037 27.0095 12.3421 27.0095C11.5466 27.0095 10.78 27.2101 9.99566 27.3408C9.52194 27.4197 9.09705 27.4589 8.61083 27.3592C8.06422 27.2471 7.5242 27.4416 7.00056 27.1936C6.65356 27.0292 6.09435 27.0923 5.72615 27.0923C5.23957 27.0923 4.75677 26.9267 4.2631 26.9267C3.70841 26.9267 2.36404 26.5933 2.77705 25.7673" stroke="#810000" stroke-width="3" stroke-linecap="round"/>
<path d="M6.42127 4.65004C6.05682 4.60449 6.17283 2.47309 6.17283 2" stroke="#810000" stroke-width="3" stroke-linecap="round"/>
<path d="M17.1869 5.06372C17.1869 4.08286 17.1738 3.18914 16.9385 2.24805" stroke="#810000" stroke-width="3" stroke-linecap="round"/>
<path d="M2.36328 12.1031C3.36273 12.0704 4.34314 11.6895 5.33998 11.5649C5.65034 11.5261 6.03577 11.4689 6.34295 11.5649C6.72029 11.6828 7.19208 11.6063 7.58055 11.6063C8.04448 11.6063 8.48003 11.6447 8.93778 11.6845C9.55663 11.7383 10.199 11.6891 10.8195 11.6891C13.9263 11.6891 17.0464 11.7719 20.1683 11.7719" stroke="#810000" stroke-width="3" stroke-linecap="round"/>
<path d="M5.75879 16.4922C6.06647 16.4922 6.6133 16.4903 6.33849 16.0781" stroke="#810000" stroke-width="3" stroke-linecap="round"/>
<path d="M10.3135 16.3266C10.3326 16.4985 10.6919 16.6486 10.8472 16.6486C11.017 16.6486 10.976 16.1738 10.976 16.0781" stroke="#810000" stroke-width="3" stroke-linecap="round"/>
<path d="M16.2761 16.0782C15.8831 16.1028 16.4261 16.3803 16.5613 16.4049C16.8404 16.4556 16.6362 15.9871 16.5245 15.9126" stroke="#810000" stroke-width="3" stroke-linecap="round"/>
<path d="M7.00098 21.5439C7.00098 22.4441 7.40941 21.8261 7.49786 21.2954" stroke="#810000" stroke-width="3" stroke-linecap="round"/>
<path d="M11.6387 21.3782C11.6387 21.5248 11.6939 21.6516 11.8043 21.7555C11.9217 21.866 11.8871 21.3619 11.8871 21.2954" stroke="#810000" stroke-width="3" stroke-linecap="round"/>
<path d="M16.6074 20.8813C16.6074 21.1561 16.7725 21.2114 16.8559 21.3782" stroke="#810000" stroke-width="3" stroke-linecap="round"/>
</svg>
