<svg width="28" height="28" viewBox="0 0 28 28" fill="none" xmlns="http://www.w3.org/2000/svg">
<path d="M17.6323 9.32176C17.6323 9.17917 17.6392 8.48428 17.4323 8.42518C17.2435 8.37121 17.0576 8.19719 16.8888 8.08466C16.6464 7.92307 16.1975 7.42389 15.9453 7.40988C15.6475 7.39334 15.4159 7.18496 15.1019 7.18496C14.4398 7.18496 13.5896 7.07002 12.9651 7.32554C12.7329 7.42049 12.5377 7.57431 12.3153 7.68792C12.0826 7.8067 11.7499 7.85632 11.5468 8.01593C11.3238 8.19114 11.1965 8.53476 11.0875 8.78131C10.9164 9.16867 10.8563 9.52906 10.7158 9.91531C10.3796 10.8399 11.2123 11.5906 11.8717 12.0896C12.4499 12.5272 13.03 12.9737 13.5961 13.4267C14.0447 13.7856 14.5691 13.985 15.0581 14.2826C15.9586 14.8308 16.8611 15.3508 17.6635 16.0321C18.2779 16.5537 18.515 17.069 18.4726 17.8533C18.4106 19.0013 17.4509 19.2538 16.5201 19.4966C16.2035 19.5792 15.8701 19.6022 15.5642 19.7246C15.3108 19.826 15.0595 19.9653 14.7863 20.0058C14.2815 20.0806 13.7981 20.3084 13.3024 20.4306C12.7897 20.5571 12.0338 20.6326 11.5436 20.4181C11.0178 20.1881 10.2885 20.0094 10.2659 19.356C10.2555 19.0535 10.1697 18.8011 10.041 18.5437" stroke="#810000" stroke-width="3" stroke-linecap="round"/>
<path d="M14.2589 20.7363C14.481 21.2438 14.1465 21.8975 14.1465 22.4233" stroke="#810000" stroke-width="3" stroke-linecap="round"/>
<path d="M14.1465 6.56604C14.1465 6.35986 14.1465 6.15367 14.1465 5.94749C14.1465 5.75899 14.2589 5.62721 14.2589 5.44141" stroke="#810000" stroke-width="3" stroke-linecap="round"/>
<path d="M14.3147 2.01148C15.0116 2.01148 15.7903 1.94395 16.464 2.13644C16.8935 2.25914 17.3191 2.35602 17.7667 2.46134C18.2276 2.56977 18.6 2.89947 19.0569 3.01116C19.5142 3.12294 20.0777 3.40908 20.5002 3.62033C21.7677 4.2541 22.8536 5.24218 23.7304 6.36943C24.1386 6.89433 24.4948 7.53359 24.7738 8.14073C24.9114 8.44014 25.0073 8.85746 25.0581 9.18726C25.0831 9.35002 25.1385 9.47812 25.2237 9.61524C25.2747 9.69741 25.4388 9.96443 25.4486 10.0526C25.4824 10.3571 25.6462 10.6835 25.7329 10.9867C25.8809 11.5047 25.9678 12.0137 26.0796 12.5393C26.189 13.0533 26.2477 13.5851 26.2952 14.1075C26.3352 14.5475 26.4607 15.0136 26.4607 15.4508C26.4607 16.1521 26.2145 16.7291 26.0109 17.3908C25.8154 18.0263 25.6186 18.615 25.3923 19.2371C25.1878 19.7995 24.8992 20.5117 24.4364 20.9084C24.0431 21.2456 23.732 21.6659 23.368 22.0299C23.108 22.2899 22.7905 22.4672 22.4683 22.6485C21.7247 23.0668 21.314 23.7109 20.8063 24.3635C20.503 24.7535 20.0094 24.931 19.5755 25.1789C18.2427 25.9405 16.8173 25.8458 15.3425 26.0193C14.9124 26.0699 14.4447 26.0224 14.0117 26.0224C13.516 26.0224 13.029 26.0786 12.5403 26.0786C11.9297 26.0786 11.3598 26.1359 10.7971 25.8787C10.4614 25.7252 10.1102 25.6057 9.78183 25.4288C9.68254 25.3754 9.54152 25.3791 9.46631 25.3039C9.35549 25.193 9.22168 25.0877 9.08518 25.0102C8.54551 24.7039 8.06907 24.2647 7.5107 23.9855C7.16685 23.8136 6.92997 23.4775 6.58288 23.3233C6.34489 23.2175 6.2682 22.9454 6.07992 22.7797C5.73436 22.4756 5.34123 22.1231 5.07087 21.7488C4.91544 21.5336 4.79483 21.2837 4.67413 21.049C4.48222 20.6759 4.1588 20.3932 3.97123 20.0337C3.77538 19.6583 3.61981 19.259 3.43078 18.881C3.24912 18.5176 3.02164 18.142 2.95594 17.7313C2.91351 17.4662 2.92148 17.1883 2.84347 16.9347C2.75909 16.6605 2.7651 16.3706 2.67478 16.0944C2.61475 15.9108 2.51474 15.7721 2.44985 15.5945C2.11854 14.6878 2.18497 13.7142 2.09997 12.758C2.05061 12.2027 2 11.6771 2 11.121C2 10.7216 2.10074 10.3772 2.28116 10.0214C2.40405 9.77898 2.54073 9.45288 2.71851 9.25286C2.94052 9.0031 3.0087 8.56816 3.18711 8.27506C3.48684 7.78265 3.75217 7.25322 4.11181 6.80366C4.39341 6.45166 4.71205 6.15551 5.0615 5.8696C5.31336 5.66353 5.66387 5.47309 5.86748 5.21668C6.08489 4.94292 6.38269 4.71291 6.64536 4.47942C7.12899 4.04953 7.61329 3.64803 8.17298 3.31731C9.44791 2.56394 10.7219 2.09261 12.2404 2.06771C12.5193 2.06314 12.7987 2.06771 13.0776 2.06771C13.2502 2.06771 13.6715 2.07457 13.7524 2.23641" stroke="#810000" stroke-width="3" stroke-linecap="round"/>
</svg>
