<svg width="27" height="28" viewBox="0 0 27 28" fill="none" xmlns="http://www.w3.org/2000/svg">
<path d="M2 16.6969C2 16.9721 2.02674 17.2401 2.02674 17.5141C2.02674 17.8433 2.02937 18.207 2.16046 18.5155C2.37526 19.0209 2.29418 19.6887 2.29418 20.2182C2.29418 20.6471 2.29418 21.076 2.29418 21.5049C2.29418 21.7153 2.32093 21.9232 2.32093 22.1319C2.32093 22.3626 2.28808 22.6196 2.32687 22.848C2.35085 22.9892 2.396 23.1279 2.42939 23.267C2.4495 23.3508 2.53182 23.4401 2.53488 23.5225C2.54474 23.789 2.58836 24.0442 2.58836 24.313C2.58836 24.5111 2.58506 24.687 2.54082 24.8805C2.49979 25.06 2.53032 25.2448 2.48139 25.4303C2.47141 25.4681 2.26941 25.9188 2.31201 25.9443C2.35143 25.968 2.46985 25.8028 2.5215 25.7913C2.60964 25.7717 2.71253 25.7408 2.80231 25.7363C3.10715 25.7211 3.43915 25.7411 3.74726 25.7036C4.4882 25.6135 5.21716 25.7096 5.95957 25.7096C6.37384 25.7096 6.79137 25.7262 7.20464 25.6962C7.47111 25.6769 7.73847 25.6828 8.00547 25.6828C8.19105 25.6828 8.40771 25.7122 8.59086 25.668C8.94133 25.5834 9.30783 25.6642 9.6621 25.6026C9.82643 25.574 9.98642 25.5224 10.1539 25.5224C10.3656 25.5224 10.402 25.5376 10.4629 25.3114C10.5242 25.0839 10.4425 24.8085 10.4094 24.5819C10.3489 24.1667 10.2906 23.777 10.2906 23.3561C10.2906 22.9785 10.2808 22.6004 10.3173 22.224C10.337 22.0205 10.3636 21.8111 10.3307 21.6074C10.3066 21.4577 10.3173 21.3025 10.3173 21.1512C10.3173 20.7947 10.2649 20.4412 10.2802 20.0845C10.3002 19.6151 10.4243 19.1469 10.4243 18.6774C10.4243 18.4899 10.4744 18.3057 10.4778 18.1173C10.4834 17.8049 10.5045 17.4941 10.5045 17.1813C10.5045 17.0575 10.5045 16.9336 10.5045 16.8098C10.5045 16.6607 10.5575 16.6499 10.3619 16.6717C10.1292 16.6975 9.89442 16.7471 9.66061 16.7504C9.21847 16.7566 8.78577 16.8769 8.34571 16.9198C7.58946 16.9934 6.80533 16.9376 6.04723 16.9376C5.41079 16.9376 4.77454 16.9109 4.1395 16.9109C3.68151 16.9109 3.23233 16.8306 2.77557 16.8306" stroke="#810000" stroke-width="3" stroke-linecap="round"/>
<path d="M20.9619 16.1084C20.4608 16.1084 19.9874 16.2597 19.4955 16.361C19.4038 16.3799 19.3337 16.4103 19.2474 16.4442C19.0271 16.5307 18.7465 16.633 18.5758 16.7978C18.3565 17.0095 18.0815 17.1573 17.8596 17.3668C17.7586 17.4623 17.643 17.5961 17.5268 17.6625C17.4923 17.6822 17.4464 17.7807 17.4199 17.8111C17.3416 17.9008 17.2629 18.0125 17.1643 18.0815C17.0569 18.1567 16.958 18.3435 16.8761 18.45C16.7993 18.5498 16.7234 18.6495 16.6413 18.7456C16.4252 18.9988 16.1182 19.3434 16.0946 19.698C16.0632 20.1684 15.9876 20.6316 15.9876 21.1035C15.9876 21.6382 15.9706 22.1391 16.2015 22.6339C16.3828 23.0224 16.5468 23.4254 16.7379 23.8076C16.8621 24.056 16.9831 24.2927 17.1792 24.4941C17.3784 24.6987 17.5065 24.9762 17.7527 25.1344C17.9799 25.2805 18.2214 25.3528 18.4748 25.442C19.0089 25.6299 19.5573 25.8634 20.1299 25.8981C20.4948 25.9202 20.9404 26.0652 21.3066 25.9635C21.4111 25.9345 21.5268 25.9234 21.635 25.9234C21.8726 25.9234 22.074 25.8953 22.308 25.8431C22.8431 25.7239 23.3476 25.5406 23.7552 25.1612C23.878 25.0468 23.9517 24.8944 24.036 24.7511C24.0828 24.6714 24.1133 24.5467 24.1712 24.4792C24.3081 24.3195 24.2944 24.1087 24.3881 23.928C24.7044 23.3181 25.1072 22.7251 25.1072 22.0039C25.1072 21.882 25.1511 21.7661 25.1622 21.6444C25.1804 21.4444 25.238 21.2507 25.2825 21.056C25.3513 20.7554 25.42 20.424 25.3345 20.12C25.1722 19.5428 24.9433 18.9416 24.611 18.4351C24.4305 18.1602 24.2257 17.8877 24.0107 17.6387C23.826 17.4248 23.531 17.3105 23.3317 17.1113C23.1331 16.9127 22.8372 16.8382 22.6067 16.7101C22.4987 16.6501 22.3628 16.5986 22.2397 16.5898C22.0582 16.5768 21.8787 16.5228 21.7063 16.4694C21.5859 16.4322 21.4661 16.4158 21.3423 16.3966C21.1446 16.366 20.9485 16.225 20.7747 16.1351" stroke="#810000" stroke-width="3" stroke-linecap="round"/>
<path d="M6.63477 12.4939C6.87063 11.7319 7.39602 10.9771 7.99736 10.4542C8.30772 10.1843 8.43739 9.79678 8.60278 9.43179C8.76381 9.07641 8.9915 8.75612 9.15649 8.40443C9.2369 8.23302 9.2854 8.05671 9.3683 7.88574C9.55032 7.51032 9.68947 7.10264 9.89199 6.74162C10.1177 6.33924 10.3221 5.92372 10.5358 5.51412C10.7556 5.09271 11.1118 4.77177 11.3763 4.375C11.548 4.11758 11.7834 3.89281 11.9334 3.62282C12.0824 3.35463 12.1934 3.06259 12.4137 2.84229C12.5657 2.69032 12.6977 2.53024 12.834 2.36363C12.9427 2.23079 13.0971 2.13623 13.2109 2.00338C13.2669 1.93803 14.151 2.83946 14.265 2.96571C14.4772 3.20063 14.7376 3.37966 14.9438 3.62449C15.1381 3.85525 15.3073 4.09247 15.4758 4.34332C15.69 4.66227 15.9069 4.96254 16.0679 5.31231C16.1536 5.49848 16.2597 5.68909 16.3581 5.86936C16.5804 6.27703 16.8181 6.68101 16.9785 7.11855C17.1492 7.58405 17.5269 7.96978 17.7057 8.43445C17.7667 8.59321 17.8116 8.79818 17.8925 8.94479C17.9936 9.12811 17.9971 9.36712 18.1026 9.54521C18.329 9.92717 18.48 10.351 18.703 10.746C18.787 10.8948 18.8523 11.0602 18.9432 11.203C19.0167 11.3185 19.382 11.8002 19.1767 11.8401C18.9196 11.8901 18.6371 11.8998 18.3761 11.9235C18.1964 11.9398 18.0228 11.9884 17.8424 12.0069C17.3533 12.0571 16.8596 12.0436 16.3681 12.0436C15.9294 12.0436 15.4999 12.1036 15.0639 12.1036C14.6219 12.1036 14.1817 12.1338 13.743 12.187C13.5748 12.2074 13.3989 12.2237 13.2293 12.2237C13.001 12.2237 12.7787 12.2789 12.5555 12.2837C12.2141 12.2912 11.8742 12.3075 11.5331 12.3288C10.8586 12.3709 10.1965 12.5786 9.52007 12.5839C9.10875 12.5872 8.69724 12.5839 8.28589 12.5839C8.1028 12.5839 7.92484 12.5629 7.74552 12.5539C7.60004 12.5467 7.31488 12.4442 7.20516 12.5539" stroke="#810000" stroke-width="3" stroke-linecap="round"/>
</svg>
