<svg width="33" height="48" viewBox="0 0 33 48" fill="none" xmlns="http://www.w3.org/2000/svg">
<path d="M20.5383 4C19.0923 8.80317 16.8829 13.4079 13.8541 17.4105C12.2232 19.5657 10.6672 21.868 8.77192 23.7994C7.75439 24.8363 6.48912 25.5223 5.49113 26.5849C5.38305 26.6999 3.77354 28.4823 4.02704 28.5525C4.58187 28.7061 5.43864 28.49 5.97405 28.3827C7.50791 28.0755 8.9644 27.4512 10.4506 26.9784C15.6324 25.3298 20.8213 23.7752 26.0344 22.2562C26.9942 21.9765 29.7117 20.6898 28.8246 21.1528C28.3677 21.3912 28.0297 21.8783 27.7438 22.287C26.8449 23.572 26.0334 24.9293 25.1682 26.2377C22.5921 30.1329 19.9 33.9121 17.0735 37.6265C16.0621 38.9558 14.6632 40.3675 14.3293 42.0478C14.1955 42.7213 13.5969 43.5727 13.0875 44" stroke="#810000" stroke-width="7" stroke-linecap="round"/>
</svg>
