<svg width="215" height="45" viewBox="0 0 215 45" fill="none" xmlns="http://www.w3.org/2000/svg">
<path fill-rule="evenodd" clip-rule="evenodd" d="M13.89 11.0766L13.8912 11.0759L13.8912 11.0759L13.8913 11.0758L13.8926 11.0753L13.8996 11.0724C13.9127 11.0675 13.9543 11.0532 14.0418 11.0379C14.2429 11.0026 14.5583 10.9811 15.1388 10.9857L15.1634 10.9859L15.1881 10.9857C15.977 10.9783 16.8926 11.097 17.6124 11.2889C17.7591 11.328 17.8539 11.3581 17.911 11.3779C17.948 11.4233 18.0066 11.4986 18.0907 11.6164C18.1393 11.6843 18.1852 11.7476 18.2304 11.81L18.2305 11.8101C18.331 11.9487 18.4282 12.0828 18.5439 12.2534C18.6792 12.4529 18.7775 12.6138 18.8387 12.7286C18.9126 12.9056 18.9881 13.0564 19.048 13.17C19.1197 13.3061 19.1962 13.4394 19.244 13.5226L19.244 13.5227L19.2579 13.5469C19.3005 13.6213 19.3239 13.663 19.3387 13.6904C19.3763 13.7957 19.4137 13.8882 19.4426 13.9575C19.4805 14.0485 19.5197 14.1373 19.5508 14.2072L19.585 14.2841C19.6364 14.3993 19.6727 14.4808 19.7085 14.5681C19.7172 14.5893 19.7248 14.6083 19.7315 14.6254C19.7259 14.9075 19.7103 15.292 19.6831 15.6552C19.6804 15.6909 19.6777 15.7255 19.6749 15.7589C19.6183 15.7981 19.5559 15.8396 19.4881 15.8831C19.2756 16.0194 19.0601 16.1424 18.8915 16.2312C18.8646 16.2453 18.8402 16.2579 18.8186 16.2689C18.7362 16.2856 18.6047 16.3106 18.4157 16.3418C18.0893 16.3955 17.6845 16.4528 17.2527 16.5052C16.353 16.6145 15.4981 16.6833 15.0492 16.6833C14.3561 16.6833 13.9126 16.6514 13.5866 16.5754C13.3085 16.5105 13.224 16.4376 13.1814 16.395C13.0768 16.2905 12.9953 16.2118 12.9238 16.145C12.8885 16.112 12.8595 16.0855 12.8378 16.0658L12.8214 16.0509C12.8054 16.0338 12.7731 15.9989 12.7133 15.9325C12.7186 15.9384 12.7185 15.9383 12.713 15.9315C12.7017 15.9177 12.6677 15.876 12.6104 15.8006C12.5357 15.7023 12.4481 15.582 12.3626 15.4586C12.2755 15.3327 12.2042 15.2232 12.1559 15.1434L12.149 15.1321C12.1024 15.0055 12.0394 14.8282 11.9768 14.6497C11.9479 14.5672 11.921 14.4899 11.8987 14.4255C11.7918 13.882 11.7322 13.4705 11.7322 13.272C11.7322 12.9838 11.7337 12.838 11.7389 12.7386C11.8432 12.6354 11.9607 12.5171 12.0829 12.3892L12.2436 12.2212C12.2854 12.1869 12.3385 12.1422 12.396 12.0904C12.457 12.0354 12.5479 11.9507 12.6513 11.8366L12.6956 11.8097C12.7627 11.7692 12.8365 11.7255 12.9249 11.6732L12.9451 11.6612L12.9453 11.6611C13.0256 11.6136 13.1163 11.5599 13.2092 11.5043C13.4106 11.3836 13.6474 11.2386 13.89 11.0766ZM6.43174 16.1037L9.13476 15.1765L6.43176 16.1037L6.43178 16.1038L6.43185 16.104L6.43205 16.1046L6.43273 16.1066L6.43518 16.1137L6.44416 16.1398L6.47651 16.2335C6.50366 16.312 6.5413 16.4205 6.58319 16.54C6.6622 16.7655 6.77198 17.0753 6.85284 17.2855C7.0661 17.84 7.47391 18.4378 7.66351 18.7116C7.90258 19.057 8.216 19.479 8.46519 19.7558C8.64879 19.9598 8.77638 20.0955 8.93428 20.2409C8.9544 20.2595 8.97816 20.281 8.98941 20.2912L8.98975 20.2915L8.9946 20.2959L9.02213 20.3212C9.03822 20.3362 9.07271 20.3689 9.14012 20.4363C9.2958 20.592 9.45562 20.7354 9.61862 20.8673L2.70315 22.3669C0.852293 22.7683 -0.322752 24.5941 0.0786089 26.4449C0.47997 28.2958 2.30575 29.4708 4.1566 29.0695L9.78585 27.8488C9.46184 28.2964 9.0783 28.7861 8.64948 29.3103C8.24102 29.8095 7.74194 30.3944 7.23147 30.9927C6.39972 31.9676 5.53771 32.9779 4.98814 33.7107C3.85181 35.2258 4.15887 37.3752 5.67397 38.5115C7.18906 39.6478 9.33846 39.3408 10.4748 37.8257C10.9383 37.2076 11.5052 36.5474 12.1774 35.7645L12.1775 35.7643L12.1776 35.7642C12.7056 35.1492 13.2986 34.4585 13.9575 33.6532C14.629 32.8325 15.322 31.9412 15.8999 31.0638C16.2433 30.5422 16.6188 29.9191 16.9203 29.2395C17.148 29.6698 17.3844 30.1067 17.6022 30.5093L17.6024 30.5098L17.6026 30.5102L17.6027 30.5102L17.6291 30.5591C18.2775 31.7576 18.7945 32.7144 18.9966 33.1692C19.4142 34.1087 19.9683 35.0139 20.3877 35.6989L20.3877 35.699C20.462 35.8203 20.532 35.9347 20.5963 36.0412C21.0815 36.8447 21.4029 37.4401 21.6029 38.0399C22.2018 39.8366 24.1438 40.8076 25.9404 40.2087C27.7371 39.6098 28.7081 37.6678 28.1092 35.8711C27.654 34.5053 26.9915 33.364 26.4671 32.4957C26.3651 32.3269 26.2702 32.1709 26.1814 32.025L26.1814 32.025C25.7634 31.3381 25.4837 30.8784 25.2638 30.3837C24.9463 29.6692 24.3206 28.5135 23.7801 27.5152L23.6612 27.2956C23.2579 26.5503 22.9078 25.8981 22.6546 25.4039C23.798 25.2761 25.0597 25.1214 26.0609 24.9043C27.4775 24.5971 28.7002 24.161 29.7147 23.7991L29.7768 23.7769C30.8422 23.397 31.6905 23.0987 32.6424 22.8923C34.4932 22.4909 35.6683 20.6652 35.2669 18.8143C34.8655 16.9635 33.0398 15.7884 31.1889 16.1898C29.7723 16.497 28.5496 16.9331 27.5352 17.295L27.4731 17.3171C26.5632 17.6416 25.8118 17.9065 25.0189 18.1055C25.1924 17.6549 25.2579 17.2015 25.2847 17.0156C25.3285 16.7116 25.3597 16.3837 25.3823 16.0828C25.4275 15.4812 25.449 14.8383 25.449 14.415C25.449 13.9225 25.3565 13.4951 25.2737 13.1961C25.1878 12.8859 25.0822 12.6088 24.9964 12.3997C24.9246 12.2244 24.8475 12.0519 24.7964 11.9375L24.7963 11.9373L24.773 11.8849C24.7439 11.8196 24.7283 11.7829 24.7213 11.7666C24.7199 11.7634 24.7189 11.761 24.7182 11.7593C24.628 11.4968 24.5232 11.2754 24.4419 11.1163C24.3581 10.9521 24.2714 10.8008 24.2181 10.7077L24.2167 10.7053C24.1585 10.6038 24.1315 10.5565 24.1114 10.5191L24.0854 10.4477L24.0241 10.32C23.6432 9.52722 23.0339 8.69455 22.8068 8.38431L22.8068 8.38429L22.8065 8.38386C22.7787 8.34582 22.7566 8.31566 22.7414 8.29443C22.3793 7.78746 21.9058 7.17976 21.1939 6.68226C20.4807 6.1838 19.7366 5.9404 19.085 5.76662C17.8759 5.44421 16.4578 5.26085 15.1603 5.27043C13.9032 5.26118 12.2437 5.30416 10.7173 6.32287C10.5117 6.46009 10.326 6.56993 10.0981 6.70464L10.0981 6.70467C9.99096 6.76799 9.87455 6.83681 9.74242 6.91656C9.57375 7.01836 9.33941 7.16268 9.11898 7.3247C9.00623 7.40758 8.85404 7.52623 8.69654 7.67701C8.63266 7.73815 8.5465 7.82463 8.4517 7.93612C8.37497 7.99952 8.27469 8.08609 8.1698 8.18848C8.06621 8.28958 7.94927 8.41426 7.83068 8.56436C7.7349 8.6613 7.64161 8.75235 7.54133 8.85022L7.48601 8.90423C7.41035 8.97816 7.31649 9.07022 7.22712 9.16258C7.14246 9.25006 7.01627 9.38423 6.89036 9.54405L6.56997 9.95069L6.4126 10.4439C6.01798 11.6806 6.0169 12.4255 6.0169 13.272C6.0169 14.1556 6.21928 15.1829 6.33509 15.7491L6.37199 15.9295L6.43174 16.1037Z" fill="#810000"/>
<path d="M46.745 30.69C44.8317 28.7767 43.875 26.5133 43.875 23.9C43.875 21.2867 44.8317 19.035 46.745 17.145C48.6583 15.2317 50.9683 14.275 53.675 14.275C57.0583 14.275 59.7067 15.535 61.62 18.055C62.4133 19.175 62.9733 20.4233 63.3 21.8H57.175C57.035 21.45 56.7783 21.0417 56.405 20.575C55.635 19.7583 54.725 19.35 53.675 19.35C52.6483 19.35 51.7733 19.77 51.05 20.61C50.35 21.45 50 22.5467 50 23.9C50 25.2533 50.35 26.35 51.05 27.19C51.7733 28.03 52.6483 28.45 53.675 28.45C54.8883 28.45 55.8217 28.0417 56.475 27.225C56.7317 26.9217 56.965 26.5133 57.175 26H63.3C62.9733 27.4 62.4133 28.66 61.62 29.78C59.7767 32.2767 57.1283 33.525 53.675 33.525C50.9683 33.525 48.6583 32.58 46.745 30.69ZM64.3664 19.875V14.8H82.2164V19.875H76.2664V33H70.3164V19.875H64.3664ZM84.125 39.65V14.8H90.075V17.25H90.425C90.7517 16.7133 91.195 16.2233 91.755 15.78C93.0383 14.7767 94.4033 14.275 95.85 14.275C98.09 14.275 99.9917 15.1617 101.555 16.935C103.118 18.685 103.9 21.0067 103.9 23.9C103.9 26.7933 103.118 29.1267 101.555 30.9C99.9917 32.65 98.09 33.525 95.85 33.525C94.38 33.525 93.015 33.035 91.755 32.055C91.195 31.6117 90.7517 31.11 90.425 30.55H90.075V39.65H84.125ZM91.125 20.54C90.425 21.3333 90.075 22.4533 90.075 23.9C90.075 25.3467 90.425 26.4667 91.125 27.26C91.825 28.0533 92.7583 28.45 93.925 28.45C95.0917 28.45 96.025 28.0533 96.725 27.26C97.425 26.4667 97.775 25.3467 97.775 23.9C97.775 22.4533 97.425 21.3333 96.725 20.54C96.025 19.7467 95.0917 19.35 93.925 19.35C92.7583 19.35 91.825 19.7467 91.125 20.54ZM108.329 30.9C106.765 29.1267 105.984 26.7933 105.984 23.9C105.984 21.0067 106.765 18.685 108.329 16.935C109.892 15.1617 111.794 14.275 114.034 14.275C115.48 14.275 116.845 14.7767 118.129 15.78C118.665 16.2233 119.109 16.7133 119.459 17.25H119.809V14.8H125.759V33H119.809V30.55H119.459C119.132 31.11 118.689 31.6117 118.129 32.055C116.869 33.035 115.504 33.525 114.034 33.525C111.794 33.525 109.892 32.65 108.329 30.9ZM113.159 20.54C112.459 21.3333 112.109 22.4533 112.109 23.9C112.109 25.3467 112.459 26.4667 113.159 27.26C113.859 28.0533 114.792 28.45 115.959 28.45C117.125 28.45 118.059 28.0533 118.759 27.26C119.459 26.4667 119.809 25.3467 119.809 23.9C119.809 22.4533 119.459 21.3333 118.759 20.54C118.059 19.7467 117.125 19.35 115.959 19.35C114.792 19.35 113.859 19.7467 113.159 20.54ZM127.667 19.875V14.8H145.517V19.875H139.567V33H133.617V19.875H127.667ZM149.456 30.69C147.519 28.8 146.551 26.5367 146.551 23.9C146.551 21.2633 147.519 19 149.456 17.11C151.392 15.22 153.749 14.275 156.526 14.275C159.349 14.275 161.717 15.22 163.631 17.11C165.544 19 166.501 21.2633 166.501 23.9V24.95H152.676C152.862 26.1867 153.282 27.1433 153.936 27.82C154.612 28.4733 155.476 28.8 156.526 28.8C157.762 28.8 158.696 28.485 159.326 27.855C159.606 27.5983 159.839 27.2717 160.026 26.875H166.326C165.906 28.1583 165.276 29.2667 164.436 30.2C162.592 32.4167 159.956 33.525 156.526 33.525C153.749 33.525 151.392 32.58 149.456 30.69ZM152.851 21.975H160.201C159.991 21.135 159.559 20.435 158.906 19.875C158.252 19.2917 157.459 19 156.526 19C155.592 19 154.799 19.2917 154.146 19.875C153.492 20.435 153.061 21.135 152.851 21.975ZM169.301 33V14.8H183.651V19.875H175.251V33H169.301ZM185.566 9.9C185.566 9.06 185.881 8.36 186.511 7.8C187.141 7.21666 187.935 6.925 188.891 6.925C189.848 6.925 190.641 7.21666 191.271 7.8C191.901 8.36 192.216 9.06 192.216 9.9C192.216 10.7167 191.901 11.4167 191.271 12C190.641 12.5833 189.848 12.875 188.891 12.875C187.935 12.875 187.141 12.5833 186.511 12C185.881 11.4167 185.566 10.7167 185.566 9.9ZM185.916 33V14.8H191.866V33H185.916ZM194.676 33L198.526 26.35C197.942 26.07 197.417 25.6967 196.951 25.23C195.901 24.18 195.376 22.8033 195.376 21.1C195.376 19.3033 196.052 17.81 197.406 16.62C198.759 15.4067 200.591 14.8 202.901 14.8H212.526V33H206.576V27.575H203.776L201.011 33H194.676ZM203.601 19.525C202.201 19.525 201.501 20.1083 201.501 21.275C201.501 22.4417 202.201 23.025 203.601 23.025H206.576V19.525H203.601Z" fill="#1B1717"/>
</svg>
