<svg width="54" height="54" viewBox="0 0 54 54" fill="none" xmlns="http://www.w3.org/2000/svg">
<path fill-rule="evenodd" clip-rule="evenodd" d="M21.0099 8.78374L21.0116 8.78261L21.0117 8.78257L21.0118 8.78254L21.0137 8.78167L21.0243 8.77738C21.0441 8.76991 21.1071 8.74833 21.2394 8.72512C21.5436 8.67175 22.0207 8.63926 22.8987 8.64618L22.936 8.64648L22.9733 8.64613C24.1666 8.63495 25.5515 8.8145 26.6402 9.10481C26.8621 9.164 27.0055 9.20945 27.0919 9.23936C27.148 9.30806 27.2365 9.42192 27.3638 9.60012C27.4372 9.7029 27.5066 9.79865 27.575 9.893L27.5752 9.89319C27.7272 10.1029 27.8743 10.3057 28.0492 10.5637C28.2538 10.8655 28.4025 11.1089 28.4952 11.2824C28.6069 11.5501 28.7212 11.7782 28.8118 11.9502C28.9202 12.1561 29.0359 12.3576 29.1082 12.4835L29.1083 12.4836L29.1293 12.5203C29.1937 12.6327 29.2291 12.6958 29.2514 12.7372C29.3083 12.8965 29.3649 13.0365 29.4085 13.1413C29.4659 13.2789 29.5253 13.4133 29.5722 13.5189L29.624 13.6352C29.7017 13.8095 29.7567 13.9328 29.8108 14.0649C29.8239 14.0969 29.8355 14.1257 29.8455 14.1516C29.8372 14.5782 29.8136 15.1599 29.7723 15.7091C29.7683 15.7631 29.7642 15.8155 29.76 15.8661C29.6743 15.9253 29.5799 15.9882 29.4774 16.0539C29.156 16.2601 28.83 16.4461 28.575 16.5804C28.5343 16.6019 28.4975 16.6209 28.4648 16.6375C28.3401 16.6628 28.1412 16.7006 27.8553 16.7477C27.3617 16.829 26.7493 16.9156 26.0962 16.9949C24.7353 17.1602 23.4422 17.2643 22.7633 17.2643C21.7148 17.2643 21.0439 17.2161 20.5509 17.101C20.1303 17.0029 20.0024 16.8927 19.938 16.8283C19.7798 16.6701 19.6566 16.5511 19.5484 16.45C19.495 16.4001 19.4511 16.36 19.4183 16.3303L19.3935 16.3077C19.3692 16.2819 19.3204 16.2291 19.23 16.1287C19.2379 16.1375 19.2378 16.1374 19.2294 16.1271C19.2124 16.1062 19.161 16.0432 19.0743 15.9291C18.9613 15.7805 18.8288 15.5985 18.6996 15.4118C18.5678 15.2214 18.4598 15.0557 18.3868 14.9351L18.3764 14.9179C18.306 14.7265 18.2106 14.4584 18.1159 14.1883C18.0722 14.0634 18.0315 13.9466 17.9977 13.8492C17.8361 13.027 17.7459 12.4047 17.7459 12.1044C17.7459 11.6685 17.7483 11.448 17.7562 11.2976C17.9138 11.1414 18.0916 10.9625 18.2765 10.7691L18.5195 10.515C18.5827 10.4632 18.663 10.3955 18.75 10.3171C18.8423 10.234 18.9797 10.1059 19.1362 9.93322L19.2032 9.89255C19.3047 9.8313 19.4164 9.76514 19.5501 9.68604L19.5805 9.66801L19.5809 9.66779C19.7023 9.59596 19.8396 9.51477 19.98 9.43065C20.2847 9.24804 20.6428 9.02871 21.0099 8.78374ZM9.72857 16.3876L13.8171 14.9851L9.72859 16.3877L9.72863 16.3878L9.72873 16.3881L9.72903 16.3889L9.73006 16.3919L9.73376 16.4027L9.74734 16.4422L9.79627 16.584C9.83734 16.7027 9.89428 16.8668 9.95764 17.0475C10.0772 17.3886 10.2432 17.8572 10.3655 18.1751C10.6881 19.0138 11.3049 19.9181 11.5917 20.3323C11.9533 20.8547 12.4274 21.493 12.8043 21.9117C13.082 22.2203 13.275 22.4255 13.5139 22.6455C13.5443 22.6735 13.5802 22.7061 13.5973 22.7215L13.5978 22.722L13.6051 22.7287L13.6467 22.7669C13.6711 22.7897 13.7233 22.8391 13.8252 22.9411C14.0607 23.1766 14.3024 23.3934 14.549 23.593L4.08874 25.8613C1.28917 26.4684 -0.488191 29.23 0.118903 32.0296C0.725996 34.8292 3.48765 36.6065 6.28722 35.9994L14.8019 34.153C14.3118 34.8301 13.7317 35.5709 13.0831 36.3636C12.4653 37.1188 11.7104 38.0035 10.9382 38.9085C9.68013 40.3831 8.37627 41.9113 7.54498 43.0197C5.8262 45.3114 6.29065 48.5625 8.58236 50.2813C10.8741 52.0001 14.1252 51.5356 15.844 49.2439C16.5452 48.3091 17.4026 47.3104 18.4194 46.1261L18.4195 46.1259L18.4197 46.1257C19.2184 45.1955 20.1153 44.1509 21.1119 42.9327C22.1276 41.6913 23.1759 40.3432 24.0499 39.016C24.5695 38.2271 25.1373 37.2846 25.5934 36.2565C25.9378 36.9075 26.2953 37.5684 26.6248 38.1773L26.6252 38.1781L26.6255 38.1786L26.6255 38.1787L26.6655 38.2526C27.6463 40.0654 28.4283 41.5127 28.734 42.2006C29.3656 43.6216 30.2038 44.9908 30.8381 46.027L30.8381 46.0271C30.9505 46.2106 31.0564 46.3837 31.1537 46.5448C31.8876 47.76 32.3738 48.6607 32.6762 49.568C33.5821 52.2856 36.5195 53.7543 39.2372 52.8484C41.9548 51.9426 43.4235 49.0051 42.5176 46.2875C41.829 44.2216 40.8269 42.4953 40.0338 41.1819C39.8795 40.9266 39.7359 40.6905 39.6017 40.47L39.6016 40.4699C38.9694 39.4309 38.5463 38.7356 38.2137 37.9874C37.7334 36.9066 36.7869 35.1585 35.9694 33.6485L35.7896 33.3163C35.1796 32.1889 34.65 31.2025 34.267 30.455C35.9965 30.2616 37.9049 30.0276 39.4194 29.6992C41.5621 29.2346 43.4115 28.5749 44.946 28.0275L45.04 27.994C46.6515 27.4193 47.9346 26.9682 49.3744 26.6559C52.174 26.0488 53.9513 23.2872 53.3442 20.4876C52.7371 17.6881 49.9755 15.9107 47.1759 16.5178C45.0332 16.9824 43.1838 17.6421 41.6493 18.1895L41.5554 18.223C40.1792 18.7138 39.0425 19.1145 37.8432 19.4155C38.1057 18.7338 38.2047 18.0481 38.2453 17.7669C38.3116 17.3071 38.3588 16.8111 38.3929 16.356C38.4612 15.4461 38.4938 14.4736 38.4938 13.8333C38.4938 13.0884 38.3538 12.4418 38.2286 11.9896C38.0987 11.5204 37.939 11.1013 37.8093 10.785C37.7006 10.5198 37.584 10.2589 37.5067 10.0858L37.5066 10.0855L37.4713 10.0063C37.4273 9.90752 37.4036 9.85201 37.3931 9.82734C37.391 9.82255 37.3895 9.81892 37.3884 9.81637C37.2519 9.4193 37.0934 9.08445 36.9705 8.84371C36.8438 8.59535 36.7126 8.36647 36.6319 8.22575L36.6298 8.22203C36.5419 8.06856 36.501 7.99705 36.4705 7.94039L36.4313 7.83237L36.3385 7.63922C35.7624 6.44012 34.8407 5.18063 34.4973 4.71137L34.4973 4.71134L34.4968 4.71068C34.4547 4.65314 34.4213 4.60753 34.3984 4.57542C33.8506 3.80859 33.1344 2.88939 32.0576 2.13687C30.9788 1.38291 29.8533 1.01474 28.8676 0.751891C27.0389 0.264217 24.8938 -0.0131259 22.9313 0.00136559C21.0298 -0.0126308 18.5197 0.0523771 16.2109 1.59326C15.8999 1.80083 15.6189 1.96696 15.2743 2.17072L15.2742 2.17077C15.1122 2.26655 14.9361 2.37065 14.7363 2.49127C14.4811 2.64526 14.1267 2.86355 13.7932 3.10862C13.6227 3.23398 13.3925 3.41345 13.1543 3.64151C13.0576 3.734 12.9273 3.86481 12.7839 4.03344C12.6679 4.12934 12.5162 4.26028 12.3575 4.41515C12.2008 4.56809 12.0239 4.75667 11.8446 4.98371C11.6997 5.13034 11.5586 5.26806 11.4069 5.4161L11.3232 5.49779C11.2088 5.60962 11.0668 5.74887 10.9316 5.88856C10.8036 6.02089 10.6127 6.22383 10.4223 6.46557L9.93764 7.08065L9.69961 7.82665C9.10272 9.6973 9.10108 10.824 9.10108 12.1044C9.10108 13.441 9.40719 14.9947 9.58237 15.8512L9.63818 16.1241L9.72857 16.3876Z" fill="#810000"/>
</svg>
