<svg width="36" height="36" viewBox="0 0 36 36" fill="none" xmlns="http://www.w3.org/2000/svg">
<g clip-path="url(#clip0_440_397)">
<path d="M35.8572 15.7182C35.7216 14.6006 35.4862 13.4974 35.1536 12.4217C34.8223 11.3709 34.3983 10.3515 33.8867 9.37549C33.3655 8.38989 32.7536 7.45482 32.059 6.58228C30.7171 4.89025 29.0627 3.47069 27.1853 2.40048C24.416 0.815484 21.277 -0.0124513 18.0849 0.000141536C17.726 -0.000897738 17.375 0.104947 17.0768 0.304191C16.9096 0.304191 16.7425 0.314987 16.5754 0.336515C16.0525 0.371497 15.4971 0.441471 14.861 0.546419C13.8084 0.723629 12.7738 0.993788 11.7691 1.35371C9.80581 2.06527 7.98152 3.11243 6.37786 4.44835C3.13317 7.16595 0.962352 10.9469 0.253418 15.1154C-0.110211 17.3251 -0.0636078 19.5827 0.390897 21.7756C0.834708 23.8866 1.65657 25.9004 2.81695 27.72C3.94479 29.4838 5.37349 31.0366 7.03827 32.3081C8.73687 33.6074 10.6537 34.5943 12.6991 35.2224C13.7662 35.5446 14.8608 35.768 15.9689 35.8898C16.6264 35.9681 17.288 36.0067 17.9501 36.0055C18.3895 36.0055 18.8343 35.9893 19.2764 35.9571C20.3857 35.8765 21.4854 35.6963 22.5624 35.4189C23.6195 35.1386 24.649 34.763 25.638 34.2967C27.5954 33.3794 29.3714 32.1178 30.8811 30.5724C32.3588 29.0648 33.5579 27.3084 34.4231 25.3842C34.8723 24.3953 35.2331 23.3687 35.5013 22.3165C35.7594 21.2464 35.9244 20.1561 35.9947 19.0577C36.0628 17.9427 36.0167 16.8238 35.8572 15.7182ZM32.0833 19.9027C31.9045 21.1269 31.5777 22.3251 31.1102 23.4709C30.6138 24.6192 29.9802 25.7035 29.2232 26.7001C28.4685 27.6548 27.6045 28.5182 26.6489 29.2727C25.6619 30.0177 24.5896 30.6428 23.4546 31.1348C22.2927 31.6088 21.0768 31.9387 19.8344 32.117C18.557 32.2744 17.2651 32.2744 15.9878 32.117C14.7324 31.9338 13.504 31.5985 12.3298 31.1187C11.1948 30.6255 10.1225 29.9995 9.13547 29.2538C8.16053 28.4897 7.28007 27.6126 6.51264 26.6409C5.76581 25.6579 5.13789 24.5902 4.64189 23.4601C4.15386 22.2822 3.81431 21.0484 3.63104 19.787C3.47335 18.5181 3.47335 17.2346 3.63104 15.9657C3.81284 14.681 4.1561 13.4243 4.65269 12.2253C5.15536 11.0762 5.79522 9.99193 6.55844 8.99609C7.33201 8.01613 8.22077 7.13253 9.20556 6.3643C10.1939 5.61104 11.269 4.97864 12.408 4.48061C13.5578 4.00221 14.7631 3.66954 15.9958 3.49034C16.3247 3.44998 16.659 3.41766 16.9905 3.39344H17.1549C17.4315 3.55969 17.7461 3.65234 18.0688 3.66254C18.5702 3.67599 19.085 3.7164 19.5837 3.7783C20.8336 3.95707 22.0567 4.28874 23.2255 4.76587C24.3446 5.2527 25.4023 5.86963 26.3766 6.60383C27.4481 7.44484 28.4179 8.40749 29.2663 9.4724C30.0157 10.4576 30.6438 11.5291 31.1371 12.6639C31.5885 13.7605 31.9036 14.9083 32.0752 16.0815C32.2331 17.3503 32.2331 18.6338 32.0752 19.9027H32.0833Z" fill="#810000"/>
<path d="M21.4976 8.11864L21.4437 8.08369L21.1363 7.83069C20.9962 7.71498 20.8668 7.60195 20.7158 7.48893L20.5864 7.3867C20.3244 7.15733 20.0324 6.96447 19.7184 6.81349L19.6295 6.77315C19.4336 6.66354 19.2087 6.61657 18.9852 6.6386C18.8768 6.63751 18.7685 6.64655 18.6618 6.66554H18.5971C18.4828 6.68361 18.3719 6.71898 18.2682 6.77046C18.0981 6.75353 17.9262 6.76811 17.7614 6.81349C17.4427 6.9048 17.1661 7.10479 16.9797 7.37862L16.0497 8.58957C15.9446 8.72412 15.8448 8.85869 15.737 9.02015L15.6939 9.09281C15.6427 9.19507 15.5968 9.30001 15.551 9.41841L15.5348 9.46952C15.4746 9.71345 15.4746 9.96831 15.5348 10.2122C15.5809 10.4245 15.6788 10.622 15.8199 10.7873C15.961 10.9526 16.1409 11.0805 16.3435 11.1595C16.5287 11.2393 16.7295 11.2766 16.931 11.2687C17.1326 11.2608 17.3297 11.2078 17.508 11.1137V12.4942C17.508 12.7471 17.508 12.9974 17.508 13.2477C17.5242 13.724 17.5485 14.1438 17.5781 14.5313C17.5943 14.725 17.6159 14.9161 17.6401 15.1071C17.6644 15.2982 17.6779 15.4274 17.6913 15.5861C17.7183 15.9144 17.7452 16.3046 17.7506 16.6895C17.7506 16.8402 17.7506 16.9935 17.7506 17.1442C17.7506 17.3837 17.7506 17.6205 17.7506 17.8573C17.7506 17.9999 17.7506 18.1453 17.7695 18.296L17.3868 18.339H17.3436C16.8638 18.3928 16.3867 18.4386 15.9069 18.4843L15.4567 18.5301C14.2957 18.6431 13.1348 18.7615 11.9739 18.8853L12.4403 18.2906C12.6459 18.0522 12.7613 17.7494 12.7664 17.4349C12.7656 17.0902 12.6291 16.7596 12.3864 16.5145C12.1404 16.2729 11.8096 16.1368 11.4645 16.1351C11.2797 16.1325 11.0966 16.1708 10.9284 16.247C10.7602 16.3233 10.6109 16.4358 10.4913 16.5764L8.70148 18.8664C8.29977 18.9122 7.92537 19.0925 7.63935 19.3778C7.30437 19.7154 7.11649 20.1713 7.11649 20.6465C7.11649 21.1217 7.30437 21.5777 7.63935 21.9153L8.10036 22.3809C8.46696 22.7522 8.83083 23.1236 9.20283 23.4869L9.2433 23.5299C9.7116 24.0041 10.2047 24.4532 10.7205 24.8754C11.038 25.1577 11.4464 25.3171 11.8715 25.3248C12.3251 25.3227 12.7597 25.143 13.0819 24.8243C13.4011 24.5027 13.5811 24.0688 13.5832 23.6161L13.5347 23.2339L13.5212 23.1639C13.4487 22.8988 13.3116 22.6557 13.1223 22.4562C12.9551 22.2409 12.7719 22.023 12.5508 21.7808C13.4673 21.7108 14.3084 21.6543 15.1063 21.6112C15.9042 21.5682 16.6805 21.5466 17.5323 21.5439C17.9232 21.5439 18.314 21.5439 18.7076 21.5439C19.2415 21.568 19.7756 21.497 20.2845 21.3341C20.576 21.244 20.8311 21.0633 21.0124 20.8184C21.1938 20.5734 21.292 20.277 21.2927 19.9724C21.2918 19.8268 21.2672 19.6823 21.2199 19.5446C21.1795 19.1517 21.104 18.7722 21.0312 18.4009L20.9962 18.2233C20.9369 17.9058 20.8856 17.5748 20.8425 17.2734C20.7805 16.6894 20.7293 16.092 20.6808 15.4973V15.3628C20.6538 15.0641 20.6269 14.7627 20.5999 14.4559C20.5676 14.0711 20.5326 13.6863 20.5002 13.3042C20.4355 12.4969 20.4139 11.6708 20.395 10.8823C20.598 10.9186 20.8062 10.9131 21.007 10.8661C21.2121 10.8196 21.4056 10.732 21.5756 10.6085C21.7457 10.4849 21.8888 10.3282 21.9962 10.1477C22.0984 9.97251 22.1647 9.77878 22.1911 9.57779C22.2175 9.37681 22.2035 9.17258 22.1499 8.97705C22.0429 8.62191 21.8114 8.31716 21.4976 8.11864Z" fill="#810000"/>
</g>
<defs>
<clipPath id="clip0_440_397">
<rect width="36" height="36" fill="white"/>
</clipPath>
</defs>
</svg>
