<svg width="21" height="15" viewBox="0 0 21 15" fill="none" xmlns="http://www.w3.org/2000/svg">
<path fill-rule="evenodd" clip-rule="evenodd" d="M9.92944 8.48606C9.85994 8.38367 9.74361 8.21229 9.64052 8.08629C9.51727 7.93565 9.32843 7.69056 9.07254 7.35845C8.92167 7.16264 8.7475 6.93658 8.54972 6.6818C8.04022 6.02546 7.41568 5.23349 6.76596 4.4637C6.12356 3.70257 5.42123 2.92074 4.75675 2.30374C4.42586 1.99649 4.06517 1.6932 3.69475 1.44852C3.36724 1.23219 2.83144 0.923994 2.18045 0.851662C1.10222 0.731858 0.131015 1.50882 0.011211 2.58705C-0.0997736 3.58591 0.55884 4.49292 1.51362 4.71628C1.5186 4.71949 1.52388 4.72292 1.52945 4.7266C1.65151 4.80723 1.83646 4.95325 2.08354 5.18268C2.575 5.63902 3.15797 6.27994 3.76371 6.99763C4.36213 7.70665 4.94856 8.44957 5.44636 9.09084C5.60309 9.29274 5.7563 9.49152 5.89978 9.67767C6.19029 10.0546 6.44088 10.3797 6.59987 10.574C6.59679 10.5704 6.65653 10.6592 6.82903 10.9158C6.87386 10.9825 6.92631 11.0605 6.98726 11.1512C7.22996 11.5123 7.54703 11.9794 7.87444 12.4248C8.18437 12.8464 8.57287 13.3449 8.95804 13.7148C9.1246 13.8747 9.45187 14.1721 9.89102 14.3582C10.123 14.4565 10.5393 14.5901 11.0544 14.5191C11.643 14.438 12.1325 14.1211 12.4531 13.6937C12.941 13.043 13.2813 12.3425 13.5428 11.7703C13.6215 11.5979 13.6919 11.4406 13.7574 11.2942C13.9325 10.9026 14.0726 10.5893 14.2445 10.2768C14.3537 10.0783 14.5081 9.86097 14.7451 9.54007C14.7607 9.51885 14.777 9.49689 14.7938 9.47423C14.9685 9.23825 15.1993 8.92648 15.4027 8.59457C15.7263 8.20001 16.046 7.76993 16.3463 7.36598C16.3617 7.34526 16.3771 7.32461 16.3924 7.30403C16.7513 6.82129 17.1003 6.35422 17.4779 5.89857C18.2319 4.98872 19.0295 4.21423 19.9883 3.68156C20.9366 3.1547 21.2783 1.95881 20.7515 1.01046C20.2246 0.0621185 19.0287 -0.279563 18.0804 0.247295C16.5205 1.11387 15.3591 2.29833 14.453 3.39169C14.0005 3.93765 13.5941 4.48325 13.2397 4.95982L13.2298 4.97325C12.8669 5.46117 12.5717 5.85829 12.2885 6.19549L12.175 6.33073L12.0874 6.48406C11.9847 6.66376 11.8377 6.86378 11.5848 7.20614L11.5836 7.20785C11.3628 7.50683 11.0554 7.92302 10.8021 8.38352C10.6597 8.64251 10.5246 8.91813 10.4 9.18522C10.3479 9.10823 10.297 9.03276 10.2478 8.95959C10.2097 8.90294 10.1717 8.8462 10.1346 8.79092C10.0604 8.6803 9.99016 8.5755 9.93132 8.48882L9.92944 8.48606ZM11.7114 10.9098C11.7113 10.9094 11.705 10.9035 11.6927 10.8939C11.7053 10.9055 11.7115 10.9103 11.7114 10.9098ZM1.44895 4.67881C1.44904 4.67915 1.45461 4.68224 1.46542 4.68708C1.45427 4.68088 1.44887 4.67846 1.44895 4.67881Z" fill="#810000"/>
</svg>
